<svg xmlns="http://www.w3.org/2000/svg" viewBox="0 0 800 600" width="800" height="600">
  
  <defs>
    <linearGradient id="sky" x1="0" y1="0" x2="0" y2="1">
      <stop offset="0%" stop-color="#243348"/>
      <stop offset="100%" stop-color="#10161f"/>
    </linearGradient>
    <radialGradient id="glow" cx="50%" cy="32%" r="60%">
      <stop offset="0%" stop-color="#3f7fe0" stop-opacity="0.22"/>
      <stop offset="100%" stop-color="#3f7fe0" stop-opacity="0"/>
    </radialGradient>
  </defs>
  <rect width="800" height="600" fill="url(#sky)"/>
  <rect width="800" height="600" fill="url(#glow)"/>
  <g stroke="#e6edf5" stroke-width="1" opacity="0.06"><line x1="40" y1="0" x2="40" y2="600"/><line x1="80" y1="0" x2="80" y2="600"/><line x1="120" y1="0" x2="120" y2="600"/><line x1="160" y1="0" x2="160" y2="600"/><line x1="200" y1="0" x2="200" y2="600"/><line x1="240" y1="0" x2="240" y2="600"/><line x1="280" y1="0" x2="280" y2="600"/><line x1="320" y1="0" x2="320" y2="600"/><line x1="360" y1="0" x2="360" y2="600"/><line x1="400" y1="0" x2="400" y2="600"/><line x1="440" y1="0" x2="440" y2="600"/><line x1="480" y1="0" x2="480" y2="600"/><line x1="520" y1="0" x2="520" y2="600"/><line x1="560" y1="0" x2="560" y2="600"/><line x1="600" y1="0" x2="600" y2="600"/><line x1="640" y1="0" x2="640" y2="600"/><line x1="680" y1="0" x2="680" y2="600"/><line x1="720" y1="0" x2="720" y2="600"/><line x1="760" y1="0" x2="760" y2="600"/><line x1="0" y1="40" x2="800" y2="40"/><line x1="0" y1="80" x2="800" y2="80"/><line x1="0" y1="120" x2="800" y2="120"/><line x1="0" y1="160" x2="800" y2="160"/><line x1="0" y1="200" x2="800" y2="200"/><line x1="0" y1="240" x2="800" y2="240"/><line x1="0" y1="280" x2="800" y2="280"/><line x1="0" y1="320" x2="800" y2="320"/><line x1="0" y1="360" x2="800" y2="360"/><line x1="0" y1="400" x2="800" y2="400"/><line x1="0" y1="440" x2="800" y2="440"/><line x1="0" y1="480" x2="800" y2="480"/><line x1="0" y1="520" x2="800" y2="520"/><line x1="0" y1="560" x2="800" y2="560"/></g>
  
  <g transform="translate(250, 186)">
    <!-- screen -->
    <rect x="0" y="0" width="300" height="170" rx="10" fill="#10161f" stroke="#5b6b82" stroke-width="3"/>
    <rect x="14" y="14" width="272" height="142" rx="4" fill="#243348"/>
    <!-- trace -->
    <polyline points="22,120 60,120 78,60 96,120 150,120 168,40 186,120 280,120" fill="none" stroke="#2e9ee3" stroke-width="3"/>
    <line x1="22" y1="120" x2="280" y2="120" stroke="#33445c" stroke-width="2"/>
    <!-- module dots -->
    <circle cx="40" cy="36" r="6" fill="#e2231a"/><circle cx="62" cy="36" r="6" fill="#3a2d7a"/><circle cx="84" cy="36" r="6" fill="#2e9ee3"/>
    <!-- base / keyboard -->
    <path d="M-26,170 L326,170 L350,200 L-50,200 Z" fill="#5b6b82"/>
    <rect x="-50" y="200" width="400" height="6" fill="#33445c"/>
  </g>
  <!-- OBD cable to a port -->
  <path d="M550,316 C 688,316 688,468 640,468" fill="none" stroke="#8b9bb3" stroke-width="4"/>
  <rect x="592" y="456" width="40" height="22" rx="4" fill="#10161f" stroke="#5b6b82" stroke-width="3"/>
  <g>
    <rect x="0" y="0" width="266.6666666666667" height="6" fill="#2e9ee3"/>
    <rect x="266.6666666666667" y="0" width="266.6666666666667" height="6" fill="#3a2d7a"/>
    <rect x="533.3333333333334" y="0" width="266.6666666666667" height="6" fill="#e2231a"/>
  </g>
  <g font-family="Arial, Helvetica, sans-serif">
    <rect x="185.92" y="535.2" width="428.16" height="45.9" rx="22.95" fill="#10161f" opacity="0.55"/>
    <text x="50%" y="573" text-anchor="middle" font-size="27" font-weight="700" fill="#e6edf5" opacity="0.92">Diagnoză computerizată</text>
  </g>
</svg>