<svg xmlns="http://www.w3.org/2000/svg" viewBox="0 0 1200 900" width="1200" height="900">
  <defs>
    <linearGradient id="g" gradientTransform="rotate(120)">
      <stop offset="0%" stop-color="#141d2b"/>
      <stop offset="100%" stop-color="#243348"/>
    </linearGradient>
  </defs>
  <rect width="1200" height="900" fill="url(#g)"/>
  <g opacity="0.07" stroke="#e6edf5" stroke-width="1">
    <line x1="0" y1="0" x2="0" y2="900"/><line x1="48" y1="0" x2="48" y2="900"/><line x1="96" y1="0" x2="96" y2="900"/><line x1="144" y1="0" x2="144" y2="900"/><line x1="192" y1="0" x2="192" y2="900"/><line x1="240" y1="0" x2="240" y2="900"/><line x1="288" y1="0" x2="288" y2="900"/><line x1="336" y1="0" x2="336" y2="900"/><line x1="384" y1="0" x2="384" y2="900"/><line x1="432" y1="0" x2="432" y2="900"/><line x1="480" y1="0" x2="480" y2="900"/><line x1="528" y1="0" x2="528" y2="900"/><line x1="576" y1="0" x2="576" y2="900"/><line x1="624" y1="0" x2="624" y2="900"/><line x1="672" y1="0" x2="672" y2="900"/><line x1="720" y1="0" x2="720" y2="900"/><line x1="768" y1="0" x2="768" y2="900"/><line x1="816" y1="0" x2="816" y2="900"/><line x1="864" y1="0" x2="864" y2="900"/><line x1="912" y1="0" x2="912" y2="900"/><line x1="960" y1="0" x2="960" y2="900"/><line x1="1008" y1="0" x2="1008" y2="900"/><line x1="1056" y1="0" x2="1056" y2="900"/><line x1="1104" y1="0" x2="1104" y2="900"/><line x1="1152" y1="0" x2="1152" y2="900"/>
    <line x1="0" y1="0" x2="1200" y2="0"/><line x1="0" y1="48" x2="1200" y2="48"/><line x1="0" y1="96" x2="1200" y2="96"/><line x1="0" y1="144" x2="1200" y2="144"/><line x1="0" y1="192" x2="1200" y2="192"/><line x1="0" y1="240" x2="1200" y2="240"/><line x1="0" y1="288" x2="1200" y2="288"/><line x1="0" y1="336" x2="1200" y2="336"/><line x1="0" y1="384" x2="1200" y2="384"/><line x1="0" y1="432" x2="1200" y2="432"/><line x1="0" y1="480" x2="1200" y2="480"/><line x1="0" y1="528" x2="1200" y2="528"/><line x1="0" y1="576" x2="1200" y2="576"/><line x1="0" y1="624" x2="1200" y2="624"/><line x1="0" y1="672" x2="1200" y2="672"/><line x1="0" y1="720" x2="1200" y2="720"/><line x1="0" y1="768" x2="1200" y2="768"/><line x1="0" y1="816" x2="1200" y2="816"/><line x1="0" y1="864" x2="1200" y2="864"/>
  </g>
  <g>
    <rect x="0" y="0" width="400" height="18" fill="#2e9ee3"/>
    <rect x="400" y="0" width="400" height="18" fill="#3a2d7a"/>
    <rect x="800" y="0" width="400" height="18" fill="#e2231a"/>
  </g>
  <g font-family="Arial, Helvetica, sans-serif" fill="#e6edf5">
    <text x="50%" y="50%" text-anchor="middle" dominant-baseline="middle" font-size="54" font-weight="700" opacity="0.55">BMW pe elevator</text>
  </g>
</svg>