<svg xmlns="http://www.w3.org/2000/svg" viewBox="0 0 800 600" width="800" height="600">
  
  <defs>
    <linearGradient id="sky" x1="0" y1="0" x2="0" y2="1">
      <stop offset="0%" stop-color="#243348"/>
      <stop offset="100%" stop-color="#10161f"/>
    </linearGradient>
    <radialGradient id="glow" cx="50%" cy="32%" r="60%">
      <stop offset="0%" stop-color="#3f7fe0" stop-opacity="0.22"/>
      <stop offset="100%" stop-color="#3f7fe0" stop-opacity="0"/>
    </radialGradient>
  </defs>
  <rect width="800" height="600" fill="url(#sky)"/>
  <rect width="800" height="600" fill="url(#glow)"/>
  <g stroke="#e6edf5" stroke-width="1" opacity="0.06"><line x1="40" y1="0" x2="40" y2="600"/><line x1="80" y1="0" x2="80" y2="600"/><line x1="120" y1="0" x2="120" y2="600"/><line x1="160" y1="0" x2="160" y2="600"/><line x1="200" y1="0" x2="200" y2="600"/><line x1="240" y1="0" x2="240" y2="600"/><line x1="280" y1="0" x2="280" y2="600"/><line x1="320" y1="0" x2="320" y2="600"/><line x1="360" y1="0" x2="360" y2="600"/><line x1="400" y1="0" x2="400" y2="600"/><line x1="440" y1="0" x2="440" y2="600"/><line x1="480" y1="0" x2="480" y2="600"/><line x1="520" y1="0" x2="520" y2="600"/><line x1="560" y1="0" x2="560" y2="600"/><line x1="600" y1="0" x2="600" y2="600"/><line x1="640" y1="0" x2="640" y2="600"/><line x1="680" y1="0" x2="680" y2="600"/><line x1="720" y1="0" x2="720" y2="600"/><line x1="760" y1="0" x2="760" y2="600"/><line x1="0" y1="40" x2="800" y2="40"/><line x1="0" y1="80" x2="800" y2="80"/><line x1="0" y1="120" x2="800" y2="120"/><line x1="0" y1="160" x2="800" y2="160"/><line x1="0" y1="200" x2="800" y2="200"/><line x1="0" y1="240" x2="800" y2="240"/><line x1="0" y1="280" x2="800" y2="280"/><line x1="0" y1="320" x2="800" y2="320"/><line x1="0" y1="360" x2="800" y2="360"/><line x1="0" y1="400" x2="800" y2="400"/><line x1="0" y1="440" x2="800" y2="440"/><line x1="0" y1="480" x2="800" y2="480"/><line x1="0" y1="520" x2="800" y2="520"/><line x1="0" y1="560" x2="800" y2="560"/></g>
  
  <path d="M330,206 a70,70 0 1,0 140,0" fill="none" stroke="#2e9ee3" stroke-width="6" opacity="0.7"/>
  <g><line x1="386.0" y1="276.0" x2="396.0" y2="276.0" stroke="#8b9bb3" stroke-width="6" stroke-linecap="round"/><line x1="381.4" y1="296.0" x2="390.5" y2="300.3" stroke="#8b9bb3" stroke-width="6" stroke-linecap="round"/><line x1="368.7" y1="312.0" x2="374.9" y2="319.8" stroke="#8b9bb3" stroke-width="6" stroke-linecap="round"/><line x1="350.2" y1="320.8" x2="352.5" y2="330.6" stroke="#8b9bb3" stroke-width="6" stroke-linecap="round"/><line x1="329.8" y1="320.8" x2="327.5" y2="330.6" stroke="#8b9bb3" stroke-width="6" stroke-linecap="round"/><line x1="311.3" y1="312.0" x2="305.1" y2="319.8" stroke="#8b9bb3" stroke-width="6" stroke-linecap="round"/><line x1="298.6" y1="296.0" x2="289.5" y2="300.3" stroke="#8b9bb3" stroke-width="6" stroke-linecap="round"/><line x1="294.0" y1="276.0" x2="284.0" y2="276.0" stroke="#8b9bb3" stroke-width="6" stroke-linecap="round"/><line x1="298.6" y1="256.0" x2="289.5" y2="251.7" stroke="#8b9bb3" stroke-width="6" stroke-linecap="round"/><line x1="311.3" y1="240.0" x2="305.1" y2="232.2" stroke="#8b9bb3" stroke-width="6" stroke-linecap="round"/><line x1="329.8" y1="231.2" x2="327.5" y2="221.4" stroke="#8b9bb3" stroke-width="6" stroke-linecap="round"/><line x1="350.2" y1="231.2" x2="352.5" y2="221.4" stroke="#8b9bb3" stroke-width="6" stroke-linecap="round"/><line x1="368.7" y1="240.0" x2="374.9" y2="232.2" stroke="#8b9bb3" stroke-width="6" stroke-linecap="round"/><line x1="381.4" y1="256.0" x2="390.5" y2="251.7" stroke="#8b9bb3" stroke-width="6" stroke-linecap="round"/><circle cx="340" cy="276" r="46" fill="#10161f" stroke="#8b9bb3" stroke-width="6"/><circle cx="340" cy="276" r="16.099999999999998" fill="#5b6b82"/></g>
  <g><line x1="504.0" y1="294.0" x2="514.0" y2="294.0" stroke="#8b9bb3" stroke-width="6" stroke-linecap="round"/><line x1="499.4" y1="311.0" x2="508.1" y2="316.0" stroke="#8b9bb3" stroke-width="6" stroke-linecap="round"/><line x1="487.0" y1="323.4" x2="492.0" y2="332.1" stroke="#8b9bb3" stroke-width="6" stroke-linecap="round"/><line x1="470.0" y1="328.0" x2="470.0" y2="338.0" stroke="#8b9bb3" stroke-width="6" stroke-linecap="round"/><line x1="453.0" y1="323.4" x2="448.0" y2="332.1" stroke="#8b9bb3" stroke-width="6" stroke-linecap="round"/><line x1="440.6" y1="311.0" x2="431.9" y2="316.0" stroke="#8b9bb3" stroke-width="6" stroke-linecap="round"/><line x1="436.0" y1="294.0" x2="426.0" y2="294.0" stroke="#8b9bb3" stroke-width="6" stroke-linecap="round"/><line x1="440.6" y1="277.0" x2="431.9" y2="272.0" stroke="#8b9bb3" stroke-width="6" stroke-linecap="round"/><line x1="453.0" y1="264.6" x2="448.0" y2="255.9" stroke="#8b9bb3" stroke-width="6" stroke-linecap="round"/><line x1="470.0" y1="260.0" x2="470.0" y2="250.0" stroke="#8b9bb3" stroke-width="6" stroke-linecap="round"/><line x1="487.0" y1="264.6" x2="492.0" y2="255.9" stroke="#8b9bb3" stroke-width="6" stroke-linecap="round"/><line x1="499.4" y1="277.0" x2="508.1" y2="272.0" stroke="#8b9bb3" stroke-width="6" stroke-linecap="round"/><circle cx="470" cy="294" r="34" fill="#10161f" stroke="#8b9bb3" stroke-width="6"/><circle cx="470" cy="294" r="11.899999999999999" fill="#5b6b82"/></g>
  <g>
    <rect x="0" y="0" width="266.6666666666667" height="6" fill="#2e9ee3"/>
    <rect x="266.6666666666667" y="0" width="266.6666666666667" height="6" fill="#3a2d7a"/>
    <rect x="533.3333333333334" y="0" width="266.6666666666667" height="6" fill="#e2231a"/>
  </g>
  <g font-family="Arial, Helvetica, sans-serif">
    <rect x="220.48" y="535.2" width="359.04" height="45.9" rx="22.95" fill="#10161f" opacity="0.55"/>
    <text x="50%" y="573" text-anchor="middle" font-size="27" font-weight="700" fill="#e6edf5" opacity="0.92">Distribuție & lanț</text>
  </g>
</svg>