<svg xmlns="http://www.w3.org/2000/svg" viewBox="0 0 800 600" width="800" height="600">
  
  <defs>
    <linearGradient id="sky" x1="0" y1="0" x2="0" y2="1">
      <stop offset="0%" stop-color="#243348"/>
      <stop offset="100%" stop-color="#10161f"/>
    </linearGradient>
    <radialGradient id="glow" cx="50%" cy="32%" r="60%">
      <stop offset="0%" stop-color="#3f7fe0" stop-opacity="0.22"/>
      <stop offset="100%" stop-color="#3f7fe0" stop-opacity="0"/>
    </radialGradient>
  </defs>
  <rect width="800" height="600" fill="url(#sky)"/>
  <rect width="800" height="600" fill="url(#glow)"/>
  <g stroke="#e6edf5" stroke-width="1" opacity="0.06"><line x1="40" y1="0" x2="40" y2="600"/><line x1="80" y1="0" x2="80" y2="600"/><line x1="120" y1="0" x2="120" y2="600"/><line x1="160" y1="0" x2="160" y2="600"/><line x1="200" y1="0" x2="200" y2="600"/><line x1="240" y1="0" x2="240" y2="600"/><line x1="280" y1="0" x2="280" y2="600"/><line x1="320" y1="0" x2="320" y2="600"/><line x1="360" y1="0" x2="360" y2="600"/><line x1="400" y1="0" x2="400" y2="600"/><line x1="440" y1="0" x2="440" y2="600"/><line x1="480" y1="0" x2="480" y2="600"/><line x1="520" y1="0" x2="520" y2="600"/><line x1="560" y1="0" x2="560" y2="600"/><line x1="600" y1="0" x2="600" y2="600"/><line x1="640" y1="0" x2="640" y2="600"/><line x1="680" y1="0" x2="680" y2="600"/><line x1="720" y1="0" x2="720" y2="600"/><line x1="760" y1="0" x2="760" y2="600"/><line x1="0" y1="40" x2="800" y2="40"/><line x1="0" y1="80" x2="800" y2="80"/><line x1="0" y1="120" x2="800" y2="120"/><line x1="0" y1="160" x2="800" y2="160"/><line x1="0" y1="200" x2="800" y2="200"/><line x1="0" y1="240" x2="800" y2="240"/><line x1="0" y1="280" x2="800" y2="280"/><line x1="0" y1="320" x2="800" y2="320"/><line x1="0" y1="360" x2="800" y2="360"/><line x1="0" y1="400" x2="800" y2="400"/><line x1="0" y1="440" x2="800" y2="440"/><line x1="0" y1="480" x2="800" y2="480"/><line x1="0" y1="520" x2="800" y2="520"/><line x1="0" y1="560" x2="800" y2="560"/></g>
  
  <rect x="0" y="510" width="800" height="6" fill="#33445c"/>
  <g fill="#10161f">
      <circle cx="272" cy="390" r="23.1"/>
      <path d="M236.3,516 C236.3,442.5 246.8,415.2 272,415.2 C297.2,415.2 307.7,442.5 307.7,516 Z"/>
    </g>
  <g fill="#5b6b82">
      <circle cx="400" cy="374.4" r="25.959999999999997"/>
      <path d="M359.88,516 C359.88,433.4 371.68,402.72 400,402.72 C428.32,402.72 440.12,433.4 440.12,516 Z"/>
    </g>
  <g fill="#10161f">
      <circle cx="528" cy="390" r="23.1"/>
      <path d="M492.3,516 C492.3,442.5 502.8,415.2 528,415.2 C553.2,415.2 563.7,442.5 563.7,516 Z"/>
    </g>
  <!-- overall accent stripe on the middle figure -->
  <rect x="396" y="402.72" width="8" height="113.28" fill="#2e9ee3" opacity="0.5"/>
  <g>
    <rect x="0" y="0" width="266.6666666666667" height="6" fill="#2e9ee3"/>
    <rect x="266.6666666666667" y="0" width="266.6666666666667" height="6" fill="#3a2d7a"/>
    <rect x="533.3333333333334" y="0" width="266.6666666666667" height="6" fill="#e2231a"/>
  </g>
  <g font-family="Arial, Helvetica, sans-serif">
    <rect x="220.48" y="535.2" width="359.04" height="45.9" rx="22.95" fill="#10161f" opacity="0.55"/>
    <text x="50%" y="573" text-anchor="middle" font-size="27" font-weight="700" fill="#e6edf5" opacity="0.92">Echipa atelierului</text>
  </g>
</svg>