<svg xmlns="http://www.w3.org/2000/svg" viewBox="0 0 800 600" width="800" height="600">
  
  <defs>
    <linearGradient id="sky" x1="0" y1="0" x2="0" y2="1">
      <stop offset="0%" stop-color="#243348"/>
      <stop offset="100%" stop-color="#10161f"/>
    </linearGradient>
    <radialGradient id="glow" cx="50%" cy="32%" r="60%">
      <stop offset="0%" stop-color="#3f7fe0" stop-opacity="0.22"/>
      <stop offset="100%" stop-color="#3f7fe0" stop-opacity="0"/>
    </radialGradient>
  </defs>
  <rect width="800" height="600" fill="url(#sky)"/>
  <rect width="800" height="600" fill="url(#glow)"/>
  <g stroke="#e6edf5" stroke-width="1" opacity="0.06"><line x1="40" y1="0" x2="40" y2="600"/><line x1="80" y1="0" x2="80" y2="600"/><line x1="120" y1="0" x2="120" y2="600"/><line x1="160" y1="0" x2="160" y2="600"/><line x1="200" y1="0" x2="200" y2="600"/><line x1="240" y1="0" x2="240" y2="600"/><line x1="280" y1="0" x2="280" y2="600"/><line x1="320" y1="0" x2="320" y2="600"/><line x1="360" y1="0" x2="360" y2="600"/><line x1="400" y1="0" x2="400" y2="600"/><line x1="440" y1="0" x2="440" y2="600"/><line x1="480" y1="0" x2="480" y2="600"/><line x1="520" y1="0" x2="520" y2="600"/><line x1="560" y1="0" x2="560" y2="600"/><line x1="600" y1="0" x2="600" y2="600"/><line x1="640" y1="0" x2="640" y2="600"/><line x1="680" y1="0" x2="680" y2="600"/><line x1="720" y1="0" x2="720" y2="600"/><line x1="760" y1="0" x2="760" y2="600"/><line x1="0" y1="40" x2="800" y2="40"/><line x1="0" y1="80" x2="800" y2="80"/><line x1="0" y1="120" x2="800" y2="120"/><line x1="0" y1="160" x2="800" y2="160"/><line x1="0" y1="200" x2="800" y2="200"/><line x1="0" y1="240" x2="800" y2="240"/><line x1="0" y1="280" x2="800" y2="280"/><line x1="0" y1="320" x2="800" y2="320"/><line x1="0" y1="360" x2="800" y2="360"/><line x1="0" y1="400" x2="800" y2="400"/><line x1="0" y1="440" x2="800" y2="440"/><line x1="0" y1="480" x2="800" y2="480"/><line x1="0" y1="520" x2="800" y2="520"/><line x1="0" y1="560" x2="800" y2="560"/></g>
  
  <circle cx="400" cy="276" r="156" fill="#10161f" stroke="#8b9bb3" stroke-width="5"/>
  <circle cx="400" cy="276" r="143.52" fill="none" stroke="#5b6b82" stroke-width="2"/>
  <line x1="470.2" y1="276.0" x2="540.4" y2="276.0" stroke="#33445c" stroke-width="3"/><line x1="468.4" y1="291.6" x2="536.9" y2="307.2" stroke="#33445c" stroke-width="3"/><line x1="463.2" y1="306.5" x2="526.5" y2="336.9" stroke="#33445c" stroke-width="3"/><line x1="454.9" y1="319.8" x2="509.8" y2="363.5" stroke="#33445c" stroke-width="3"/><line x1="443.8" y1="330.9" x2="487.5" y2="385.8" stroke="#33445c" stroke-width="3"/><line x1="430.5" y1="339.2" x2="460.9" y2="402.5" stroke="#33445c" stroke-width="3"/><line x1="415.6" y1="344.4" x2="431.2" y2="412.9" stroke="#33445c" stroke-width="3"/><line x1="400.0" y1="346.2" x2="400.0" y2="416.4" stroke="#33445c" stroke-width="3"/><line x1="384.4" y1="344.4" x2="368.8" y2="412.9" stroke="#33445c" stroke-width="3"/><line x1="369.5" y1="339.2" x2="339.1" y2="402.5" stroke="#33445c" stroke-width="3"/><line x1="356.2" y1="330.9" x2="312.5" y2="385.8" stroke="#33445c" stroke-width="3"/><line x1="345.1" y1="319.8" x2="290.2" y2="363.5" stroke="#33445c" stroke-width="3"/><line x1="336.8" y1="306.5" x2="273.5" y2="336.9" stroke="#33445c" stroke-width="3"/><line x1="331.6" y1="291.6" x2="263.1" y2="307.2" stroke="#33445c" stroke-width="3"/><line x1="329.8" y1="276.0" x2="259.6" y2="276.0" stroke="#33445c" stroke-width="3"/><line x1="331.6" y1="260.4" x2="263.1" y2="244.8" stroke="#33445c" stroke-width="3"/><line x1="336.8" y1="245.5" x2="273.5" y2="215.1" stroke="#33445c" stroke-width="3"/><line x1="345.1" y1="232.2" x2="290.2" y2="188.5" stroke="#33445c" stroke-width="3"/><line x1="356.2" y1="221.1" x2="312.5" y2="166.2" stroke="#33445c" stroke-width="3"/><line x1="369.5" y1="212.8" x2="339.1" y2="149.5" stroke="#33445c" stroke-width="3"/><line x1="384.4" y1="207.6" x2="368.8" y2="139.1" stroke="#33445c" stroke-width="3"/><line x1="400.0" y1="205.8" x2="400.0" y2="135.6" stroke="#33445c" stroke-width="3"/><line x1="415.6" y1="207.6" x2="431.2" y2="139.1" stroke="#33445c" stroke-width="3"/><line x1="430.5" y1="212.8" x2="460.9" y2="149.5" stroke="#33445c" stroke-width="3"/><line x1="443.8" y1="221.1" x2="487.5" y2="166.2" stroke="#33445c" stroke-width="3"/><line x1="454.9" y1="232.2" x2="509.8" y2="188.5" stroke="#33445c" stroke-width="3"/><line x1="463.2" y1="245.5" x2="526.5" y2="215.1" stroke="#33445c" stroke-width="3"/><line x1="468.4" y1="260.4" x2="536.9" y2="244.8" stroke="#33445c" stroke-width="3"/>
  <circle cx="400" cy="276" r="62.400000000000006" fill="#243348" stroke="#8b9bb3" stroke-width="4"/>
  <circle cx="400.0" cy="241.7" r="5" fill="#5b6b82"/><circle cx="432.6" cy="265.4" r="5" fill="#5b6b82"/><circle cx="420.2" cy="303.8" r="5" fill="#5b6b82"/><circle cx="379.8" cy="303.8" r="5" fill="#5b6b82"/><circle cx="367.4" cy="265.4" r="5" fill="#5b6b82"/>
  <!-- caliper -->
  <path d="M234,198 a85.80000000000001,85.80000000000001 0 0,0 0,156 l28,0 l0,-156 Z" fill="#e2231a" opacity="0.85"/>
  <g>
    <rect x="0" y="0" width="266.6666666666667" height="6" fill="#2e9ee3"/>
    <rect x="266.6666666666667" y="0" width="266.6666666666667" height="6" fill="#3a2d7a"/>
    <rect x="533.3333333333334" y="0" width="266.6666666666667" height="6" fill="#e2231a"/>
  </g>
  <g font-family="Arial, Helvetica, sans-serif">
    <rect x="229.12" y="535.2" width="341.76" height="45.9" rx="22.95" fill="#10161f" opacity="0.55"/>
    <text x="50%" y="573" text-anchor="middle" font-size="27" font-weight="700" fill="#e6edf5" opacity="0.92">Sistem de frânare</text>
  </g>
</svg>