<svg xmlns="http://www.w3.org/2000/svg" viewBox="0 0 1600 1000" width="1600" height="1000">
  
  <defs>
    <linearGradient id="sky" x1="0" y1="0" x2="0" y2="1">
      <stop offset="0%" stop-color="#243348"/>
      <stop offset="100%" stop-color="#10161f"/>
    </linearGradient>
    <radialGradient id="glow" cx="50%" cy="32%" r="60%">
      <stop offset="0%" stop-color="#3f7fe0" stop-opacity="0.22"/>
      <stop offset="100%" stop-color="#3f7fe0" stop-opacity="0"/>
    </radialGradient>
  </defs>
  <rect width="1600" height="1000" fill="url(#sky)"/>
  <rect width="1600" height="1000" fill="url(#glow)"/>
  <g stroke="#e6edf5" stroke-width="1" opacity="0.06"><line x1="40" y1="0" x2="40" y2="1000"/><line x1="80" y1="0" x2="80" y2="1000"/><line x1="120" y1="0" x2="120" y2="1000"/><line x1="160" y1="0" x2="160" y2="1000"/><line x1="200" y1="0" x2="200" y2="1000"/><line x1="240" y1="0" x2="240" y2="1000"/><line x1="280" y1="0" x2="280" y2="1000"/><line x1="320" y1="0" x2="320" y2="1000"/><line x1="360" y1="0" x2="360" y2="1000"/><line x1="400" y1="0" x2="400" y2="1000"/><line x1="440" y1="0" x2="440" y2="1000"/><line x1="480" y1="0" x2="480" y2="1000"/><line x1="520" y1="0" x2="520" y2="1000"/><line x1="560" y1="0" x2="560" y2="1000"/><line x1="600" y1="0" x2="600" y2="1000"/><line x1="640" y1="0" x2="640" y2="1000"/><line x1="680" y1="0" x2="680" y2="1000"/><line x1="720" y1="0" x2="720" y2="1000"/><line x1="760" y1="0" x2="760" y2="1000"/><line x1="800" y1="0" x2="800" y2="1000"/><line x1="840" y1="0" x2="840" y2="1000"/><line x1="880" y1="0" x2="880" y2="1000"/><line x1="920" y1="0" x2="920" y2="1000"/><line x1="960" y1="0" x2="960" y2="1000"/><line x1="1000" y1="0" x2="1000" y2="1000"/><line x1="1040" y1="0" x2="1040" y2="1000"/><line x1="1080" y1="0" x2="1080" y2="1000"/><line x1="1120" y1="0" x2="1120" y2="1000"/><line x1="1160" y1="0" x2="1160" y2="1000"/><line x1="1200" y1="0" x2="1200" y2="1000"/><line x1="1240" y1="0" x2="1240" y2="1000"/><line x1="1280" y1="0" x2="1280" y2="1000"/><line x1="1320" y1="0" x2="1320" y2="1000"/><line x1="1360" y1="0" x2="1360" y2="1000"/><line x1="1400" y1="0" x2="1400" y2="1000"/><line x1="1440" y1="0" x2="1440" y2="1000"/><line x1="1480" y1="0" x2="1480" y2="1000"/><line x1="1520" y1="0" x2="1520" y2="1000"/><line x1="1560" y1="0" x2="1560" y2="1000"/><line x1="0" y1="40" x2="1600" y2="40"/><line x1="0" y1="80" x2="1600" y2="80"/><line x1="0" y1="120" x2="1600" y2="120"/><line x1="0" y1="160" x2="1600" y2="160"/><line x1="0" y1="200" x2="1600" y2="200"/><line x1="0" y1="240" x2="1600" y2="240"/><line x1="0" y1="280" x2="1600" y2="280"/><line x1="0" y1="320" x2="1600" y2="320"/><line x1="0" y1="360" x2="1600" y2="360"/><line x1="0" y1="400" x2="1600" y2="400"/><line x1="0" y1="440" x2="1600" y2="440"/><line x1="0" y1="480" x2="1600" y2="480"/><line x1="0" y1="520" x2="1600" y2="520"/><line x1="0" y1="560" x2="1600" y2="560"/><line x1="0" y1="600" x2="1600" y2="600"/><line x1="0" y1="640" x2="1600" y2="640"/><line x1="0" y1="680" x2="1600" y2="680"/><line x1="0" y1="720" x2="1600" y2="720"/><line x1="0" y1="760" x2="1600" y2="760"/><line x1="0" y1="800" x2="1600" y2="800"/><line x1="0" y1="840" x2="1600" y2="840"/><line x1="0" y1="880" x2="1600" y2="880"/><line x1="0" y1="920" x2="1600" y2="920"/><line x1="0" y1="960" x2="1600" y2="960"/></g>
  
  <!-- bay doors / light wash -->
  <rect x="992" y="0" width="608" height="1000" fill="#243348" opacity="0.5"/>
  <g stroke="#33445c" stroke-width="2" opacity="0.5">
    <line x1="992" y1="0" x2="992" y2="1000"/><line x1="1093.3333333333333" y1="0" x2="1093.3333333333333" y2="1000"/><line x1="1194.6666666666667" y1="0" x2="1194.6666666666667" y2="1000"/><line x1="1296" y1="0" x2="1296" y2="1000"/><line x1="1397.3333333333333" y1="0" x2="1397.3333333333333" y2="1000"/><line x1="1498.6666666666667" y1="0" x2="1498.6666666666667" y2="1000"/>
  </g>
  <!-- floor -->
  <rect x="0" y="820" width="1600" height="180" fill="#10161f"/>
  <line x1="0" y1="820" x2="1600" y2="820" stroke="#33445c" stroke-width="2"/>
  <!-- two-post lift -->
  <g stroke="#5b6b82" stroke-width="10" stroke-linecap="round">
    <line x1="320" y1="180" x2="320" y2="820"/>
    <line x1="1280" y1="180" x2="1280" y2="820"/>
  </g>
  <rect x="288" y="160" width="1024" height="10" rx="4" fill="#5b6b82"/>
  <!-- arms holding the car -->
  <g stroke="#8b9bb3" stroke-width="8" stroke-linecap="round">
    <line x1="320" y1="520" x2="576" y2="520"/>
    <line x1="1280" y1="520" x2="1024" y2="520"/>
  </g>
  <!-- the car, lifted -->
  <g transform="translate(600, 300) scale(1.1)">
    <g fill="#10161f" stroke="#8b9bb3" stroke-width="3" stroke-linejoin="round">
    <path d="M10,92
             C30,78 60,72 92,70
             L120,46 C128,38 140,34 158,33
             L250,33 C268,34 280,40 292,52
             L322,72 C340,74 352,80 360,90
             L362,104 C362,112 356,116 348,116
             L300,116
             C300,100 286,88 270,88 C254,88 240,100 240,116
             L150,116
             C150,100 136,88 120,88 C104,88 90,100 90,116
             L24,116 C14,116 8,110 8,102 Z"/>
    <path d="M132,46 L168,46 L168,66 L120,66 Z" fill="#243348" stroke="none"/>
    <path d="M176,46 L246,46 C258,47 266,54 274,64 L176,66 Z" fill="#243348" stroke="none"/>
    <path d="M250,49 L252,64 L268,64 Z" fill="#243348" stroke="none"/>
    <circle cx="120" cy="116" r="22" fill="#18222f" stroke="#8b9bb3" stroke-width="3"/>
    <circle cx="120" cy="116" r="9" fill="#5b6b82" stroke="none"/>
    <circle cx="270" cy="116" r="22" fill="#18222f" stroke="#8b9bb3" stroke-width="3"/>
    <circle cx="270" cy="116" r="9" fill="#5b6b82" stroke="none"/>
  </g>
  </g>
  <g>
    <rect x="0" y="0" width="533.3333333333334" height="6" fill="#2e9ee3"/>
    <rect x="533.3333333333334" y="0" width="533.3333333333334" height="6" fill="#3a2d7a"/>
    <rect x="1066.6666666666667" y="0" width="533.3333333333334" height="6" fill="#e2231a"/>
  </g>
  <g font-family="Arial, Helvetica, sans-serif">
    <rect x="401.59999999999997" y="892" width="796.8000000000001" height="76.5" rx="38.25" fill="#10161f" opacity="0.55"/>
    <text x="50%" y="955" text-anchor="middle" font-size="45" font-weight="700" fill="#e6edf5" opacity="0.92">BavAuto Gorj · atelier BMW</text>
  </g>
</svg>