<svg xmlns="http://www.w3.org/2000/svg" viewBox="0 0 1200 630" width="1200" height="630">
  
  <defs>
    <linearGradient id="sky" x1="0" y1="0" x2="0" y2="1">
      <stop offset="0%" stop-color="#243348"/>
      <stop offset="100%" stop-color="#10161f"/>
    </linearGradient>
    <radialGradient id="glow" cx="50%" cy="32%" r="60%">
      <stop offset="0%" stop-color="#3f7fe0" stop-opacity="0.22"/>
      <stop offset="100%" stop-color="#3f7fe0" stop-opacity="0"/>
    </radialGradient>
  </defs>
  <rect width="1200" height="630" fill="url(#sky)"/>
  <rect width="1200" height="630" fill="url(#glow)"/>
  <g stroke="#e6edf5" stroke-width="1" opacity="0.06"><line x1="40" y1="0" x2="40" y2="630"/><line x1="80" y1="0" x2="80" y2="630"/><line x1="120" y1="0" x2="120" y2="630"/><line x1="160" y1="0" x2="160" y2="630"/><line x1="200" y1="0" x2="200" y2="630"/><line x1="240" y1="0" x2="240" y2="630"/><line x1="280" y1="0" x2="280" y2="630"/><line x1="320" y1="0" x2="320" y2="630"/><line x1="360" y1="0" x2="360" y2="630"/><line x1="400" y1="0" x2="400" y2="630"/><line x1="440" y1="0" x2="440" y2="630"/><line x1="480" y1="0" x2="480" y2="630"/><line x1="520" y1="0" x2="520" y2="630"/><line x1="560" y1="0" x2="560" y2="630"/><line x1="600" y1="0" x2="600" y2="630"/><line x1="640" y1="0" x2="640" y2="630"/><line x1="680" y1="0" x2="680" y2="630"/><line x1="720" y1="0" x2="720" y2="630"/><line x1="760" y1="0" x2="760" y2="630"/><line x1="800" y1="0" x2="800" y2="630"/><line x1="840" y1="0" x2="840" y2="630"/><line x1="880" y1="0" x2="880" y2="630"/><line x1="920" y1="0" x2="920" y2="630"/><line x1="960" y1="0" x2="960" y2="630"/><line x1="1000" y1="0" x2="1000" y2="630"/><line x1="1040" y1="0" x2="1040" y2="630"/><line x1="1080" y1="0" x2="1080" y2="630"/><line x1="1120" y1="0" x2="1120" y2="630"/><line x1="1160" y1="0" x2="1160" y2="630"/><line x1="0" y1="40" x2="1200" y2="40"/><line x1="0" y1="80" x2="1200" y2="80"/><line x1="0" y1="120" x2="1200" y2="120"/><line x1="0" y1="160" x2="1200" y2="160"/><line x1="0" y1="200" x2="1200" y2="200"/><line x1="0" y1="240" x2="1200" y2="240"/><line x1="0" y1="280" x2="1200" y2="280"/><line x1="0" y1="320" x2="1200" y2="320"/><line x1="0" y1="360" x2="1200" y2="360"/><line x1="0" y1="400" x2="1200" y2="400"/><line x1="0" y1="440" x2="1200" y2="440"/><line x1="0" y1="480" x2="1200" y2="480"/><line x1="0" y1="520" x2="1200" y2="520"/><line x1="0" y1="560" x2="1200" y2="560"/><line x1="0" y1="600" x2="1200" y2="600"/></g>
  
  <!-- bay doors / light wash -->
  <rect x="744" y="0" width="456" height="630" fill="#243348" opacity="0.5"/>
  <g stroke="#33445c" stroke-width="2" opacity="0.5">
    <line x1="744" y1="0" x2="744" y2="630"/><line x1="820" y1="0" x2="820" y2="630"/><line x1="896" y1="0" x2="896" y2="630"/><line x1="972" y1="0" x2="972" y2="630"/><line x1="1048" y1="0" x2="1048" y2="630"/><line x1="1124" y1="0" x2="1124" y2="630"/>
  </g>
  <!-- floor -->
  <rect x="0" y="516.6" width="1200" height="113.39999999999999" fill="#10161f"/>
  <line x1="0" y1="516.6" x2="1200" y2="516.6" stroke="#33445c" stroke-width="2"/>
  <!-- two-post lift -->
  <g stroke="#5b6b82" stroke-width="10" stroke-linecap="round">
    <line x1="240" y1="113.39999999999999" x2="240" y2="516.6"/>
    <line x1="960" y1="113.39999999999999" x2="960" y2="516.6"/>
  </g>
  <rect x="216" y="100.8" width="768" height="10" rx="4" fill="#5b6b82"/>
  <!-- arms holding the car -->
  <g stroke="#8b9bb3" stroke-width="8" stroke-linecap="round">
    <line x1="240" y1="327.6" x2="432" y2="327.6"/>
    <line x1="960" y1="327.6" x2="768" y2="327.6"/>
  </g>
  <!-- the car, lifted -->
  <g transform="translate(400, 189) scale(1.1)">
    <g fill="#10161f" stroke="#8b9bb3" stroke-width="3" stroke-linejoin="round">
    <path d="M10,92
             C30,78 60,72 92,70
             L120,46 C128,38 140,34 158,33
             L250,33 C268,34 280,40 292,52
             L322,72 C340,74 352,80 360,90
             L362,104 C362,112 356,116 348,116
             L300,116
             C300,100 286,88 270,88 C254,88 240,100 240,116
             L150,116
             C150,100 136,88 120,88 C104,88 90,100 90,116
             L24,116 C14,116 8,110 8,102 Z"/>
    <path d="M132,46 L168,46 L168,66 L120,66 Z" fill="#243348" stroke="none"/>
    <path d="M176,46 L246,46 C258,47 266,54 274,64 L176,66 Z" fill="#243348" stroke="none"/>
    <path d="M250,49 L252,64 L268,64 Z" fill="#243348" stroke="none"/>
    <circle cx="120" cy="116" r="22" fill="#18222f" stroke="#8b9bb3" stroke-width="3"/>
    <circle cx="120" cy="116" r="9" fill="#5b6b82" stroke="none"/>
    <circle cx="270" cy="116" r="22" fill="#18222f" stroke="#8b9bb3" stroke-width="3"/>
    <circle cx="270" cy="116" r="9" fill="#5b6b82" stroke="none"/>
  </g>
  </g>
  <g>
    <rect x="0" y="0" width="400" height="6" fill="#2e9ee3"/>
    <rect x="400" y="0" width="400" height="6" fill="#3a2d7a"/>
    <rect x="800" y="0" width="400" height="6" fill="#e2231a"/>
  </g>
  <g font-family="Arial, Helvetica, sans-serif">
    <rect x="343.03999999999996" y="562.8" width="513.9200000000001" height="47.6" rx="23.8" fill="#10161f" opacity="0.55"/>
    <text x="50%" y="602" text-anchor="middle" font-size="28" font-weight="700" fill="#e6edf5" opacity="0.92">BavAuto Gorj · Service BMW</text>
  </g>
</svg>