<svg xmlns="http://www.w3.org/2000/svg" viewBox="0 0 1000 750" width="1000" height="750">
  
  <defs>
    <linearGradient id="dusk" x1="0" y1="0" x2="0" y2="1">
      <stop offset="0%" stop-color="#1c2f23"/>
      <stop offset="60%" stop-color="#26412f"/>
      <stop offset="100%" stop-color="#2c3a2c"/>
    </linearGradient>
    <radialGradient id="lamp" cx="50%" cy="62%" r="42%">
      <stop offset="0%" stop-color="#e6a877" stop-opacity="0.5"/>
      <stop offset="55%" stop-color="#c87b4a" stop-opacity="0.12"/>
      <stop offset="100%" stop-color="#c87b4a" stop-opacity="0"/>
    </radialGradient>
    <linearGradient id="guyline" x1="0" y1="0" x2="1" y2="0">
      <stop offset="0%" stop-color="#5a8c63"/>
      <stop offset="100%" stop-color="#e6a877"/>
    </linearGradient>
  </defs>
  <rect width="1000" height="750" fill="url(#dusk)"/>
  <rect width="1000" height="750" fill="url(#lamp)"/>
  
  <line x1="0" y1="600" x2="1000" y2="600" stroke="#46604f" stroke-width="2" opacity="0.4"/>
  <g>
    <path d="M150,533.3333333333334
    L246,475
    L300,497.5
    L354,475
    L450,533.3333333333334
    L450,600
    L150,600 Z" fill="#eef0e8" opacity="0.95"/>
    <path d="M150,533.3333333333334
    L246,475
    L300,497.5
    L354,475
    L450,533.3333333333334 L450,533.3333333333334" fill="none" stroke="#3a6b46" stroke-width="2.0833333333333335" opacity="0.35"/>
    <line x1="246" y1="475" x2="246" y2="600" stroke="#3a6b46" stroke-width="1.25" opacity="0.25"/>
    <line x1="354" y1="475" x2="354" y2="600" stroke="#3a6b46" stroke-width="1.25" opacity="0.25"/>
    
    <!-- guy ropes -->
    <line x1="150" y1="533.3333333333334" x2="121.66666666666666" y2="600" stroke="#5a8c63" stroke-width="1.25" opacity="0.6"/>
    <line x1="450" y1="533.3333333333334" x2="478.3333333333333" y2="600" stroke="#5a8c63" stroke-width="1.25" opacity="0.6"/>
  </g>
  <g>
    <path d="M402.258064516129,488.2258064516129
    L541.6129032258065,403.54838709677415
    L620,436.2096774193549
    L698.3870967741935,403.54838709677415
    L837.741935483871,488.2258064516129
    L837.741935483871,585
    L402.258064516129,585 Z" fill="#eef0e8" opacity="0.95"/>
    <path d="M402.258064516129,488.2258064516129
    L541.6129032258065,403.54838709677415
    L620,436.2096774193549
    L698.3870967741935,403.54838709677415
    L837.741935483871,488.2258064516129 L837.741935483871,488.2258064516129" fill="none" stroke="#3a6b46" stroke-width="3.024193548387097" opacity="0.35"/>
    <line x1="541.6129032258065" y1="403.54838709677415" x2="541.6129032258065" y2="585" stroke="#3a6b46" stroke-width="1.814516129032258" opacity="0.25"/>
    <line x1="698.3870967741935" y1="403.54838709677415" x2="698.3870967741935" y2="585" stroke="#3a6b46" stroke-width="1.814516129032258" opacity="0.25"/>
    <path d="M564.3548387096774,585
         L564.3548387096774,495.96774193548384
         Q620,473.7096774193549 675.6451612903226,495.96774193548384
         L675.6451612903226,585 Z" fill="#e6a877" opacity="0.9"/>
       <path d="M583.7096774193549,585
         L583.7096774193549,509.51612903225805
         Q620,493.06451612903226 656.2903225806451,509.51612903225805
         L656.2903225806451,585 Z" fill="#f3f1e8" opacity="0.85"/>
    <!-- guy ropes -->
    <line x1="402.258064516129" y1="488.2258064516129" x2="361.1290322580645" y2="585" stroke="#5a8c63" stroke-width="1.814516129032258" opacity="0.6"/>
    <line x1="837.741935483871" y1="488.2258064516129" x2="878.8709677419355" y2="585" stroke="#5a8c63" stroke-width="1.814516129032258" opacity="0.6"/>
  </g>
  <rect x="0" y="0" width="1000" height="5" fill="url(#guyline)"/>
  <g font-family="Georgia, 'Times New Roman', serif">
    <text x="50%" y="717" text-anchor="middle" font-size="30" font-weight="700" fill="#f3f1e8" opacity="0.9">Cort pe teren deschis</text>
  </g>
</svg>