<svg xmlns="http://www.w3.org/2000/svg" viewBox="0 0 1000 750" width="1000" height="750">
  
  <defs>
    <linearGradient id="dusk" x1="0" y1="0" x2="0" y2="1">
      <stop offset="0%" stop-color="#1c2f23"/>
      <stop offset="60%" stop-color="#26412f"/>
      <stop offset="100%" stop-color="#2c3a2c"/>
    </linearGradient>
    <radialGradient id="lamp" cx="50%" cy="62%" r="42%">
      <stop offset="0%" stop-color="#e6a877" stop-opacity="0.5"/>
      <stop offset="55%" stop-color="#c87b4a" stop-opacity="0.12"/>
      <stop offset="100%" stop-color="#c87b4a" stop-opacity="0"/>
    </radialGradient>
    <linearGradient id="guyline" x1="0" y1="0" x2="1" y2="0">
      <stop offset="0%" stop-color="#5a8c63"/>
      <stop offset="100%" stop-color="#e6a877"/>
    </linearGradient>
  </defs>
  <rect width="1000" height="750" fill="url(#dusk)"/>
  <rect width="1000" height="750" fill="url(#lamp)"/>
  
  <path d="M0,255.00000000000003 Q500,283 1000,255.00000000000003" fill="none" stroke="#46604f" stroke-width="1.5" opacity="0.5"/><circle cx="0.0" cy="255.0" r="3.5" fill="#e6a877" opacity="0.9"/><circle cx="166.7" cy="269.0" r="3.5" fill="#e6a877" opacity="0.9"/><circle cx="333.3" cy="279.2" r="3.5" fill="#e6a877" opacity="0.9"/><circle cx="500.0" cy="283.0" r="3.5" fill="#e6a877" opacity="0.9"/><circle cx="666.7" cy="279.2" r="3.5" fill="#e6a877" opacity="0.9"/><circle cx="833.3" cy="269.0" r="3.5" fill="#e6a877" opacity="0.9"/><circle cx="1000.0" cy="255.0" r="3.5" fill="#e6a877" opacity="0.9"/>
  <path d="M0,405 Q500,433 1000,405" fill="none" stroke="#46604f" stroke-width="1.5" opacity="0.5"/><circle cx="0.0" cy="405.0" r="3.5" fill="#e6a877" opacity="0.9"/><circle cx="200.0" cy="421.5" r="3.5" fill="#e6a877" opacity="0.9"/><circle cx="400.0" cy="431.6" r="3.5" fill="#e6a877" opacity="0.9"/><circle cx="600.0" cy="431.6" r="3.5" fill="#e6a877" opacity="0.9"/><circle cx="800.0" cy="421.5" r="3.5" fill="#e6a877" opacity="0.9"/><circle cx="1000.0" cy="405.0" r="3.5" fill="#e6a877" opacity="0.9"/>
  <g>
    <path d="M322.36842105263156,566.0526315789474
    L436.0526315789474,496.97368421052636
    L500,523.6184210526316
    L563.9473684210526,496.97368421052636
    L677.6315789473684,566.0526315789474
    L677.6315789473684,645
    L322.36842105263156,645 Z" fill="#eef0e8" opacity="0.95"/>
    <path d="M322.36842105263156,566.0526315789474
    L436.0526315789474,496.97368421052636
    L500,523.6184210526316
    L563.9473684210526,496.97368421052636
    L677.6315789473684,566.0526315789474 L677.6315789473684,566.0526315789474" fill="none" stroke="#3a6b46" stroke-width="2.4671052631578947" opacity="0.35"/>
    <line x1="436.0526315789474" y1="496.97368421052636" x2="436.0526315789474" y2="645" stroke="#3a6b46" stroke-width="1.4802631578947367" opacity="0.25"/>
    <line x1="563.9473684210526" y1="496.97368421052636" x2="563.9473684210526" y2="645" stroke="#3a6b46" stroke-width="1.4802631578947367" opacity="0.25"/>
    <path d="M454.60526315789474,645
         L454.60526315789474,572.3684210526316
         Q500,554.2105263157895 545.3947368421052,572.3684210526316
         L545.3947368421052,645 Z" fill="#e6a877" opacity="0.9"/>
       <path d="M470.39473684210526,645
         L470.39473684210526,583.421052631579
         Q500,570 529.6052631578947,583.421052631579
         L529.6052631578947,645 Z" fill="#f3f1e8" opacity="0.85"/>
    <!-- guy ropes -->
    <line x1="322.36842105263156" y1="566.0526315789474" x2="288.81578947368416" y2="645" stroke="#5a8c63" stroke-width="1.4802631578947367" opacity="0.6"/>
    <line x1="677.6315789473684" y1="566.0526315789474" x2="711.1842105263158" y2="645" stroke="#5a8c63" stroke-width="1.4802631578947367" opacity="0.6"/>
  </g>
  <rect x="0" y="0" width="1000" height="5" fill="url(#guyline)"/>
  <g font-family="Georgia, 'Times New Roman', serif">
    <text x="50%" y="717" text-anchor="middle" font-size="30" font-weight="700" fill="#f3f1e8" opacity="0.9">Iluminat cald, seara</text>
  </g>
</svg>