<svg xmlns="http://www.w3.org/2000/svg" viewBox="0 0 1000 750" width="1000" height="750">
  
  <defs>
    <linearGradient id="dusk" x1="0" y1="0" x2="0" y2="1">
      <stop offset="0%" stop-color="#16271d"/>
      <stop offset="45%" stop-color="#274635"/>
      <stop offset="74%" stop-color="#7a6e4e"/>
      <stop offset="82%" stop-color="#3a5b44"/>
      <stop offset="100%" stop-color="#223024"/>
    </linearGradient>
    <radialGradient id="lamp" cx="50%" cy="64%" r="46%">
      <stop offset="0%" stop-color="#f0b985" stop-opacity="0.62"/>
      <stop offset="50%" stop-color="#d2864f" stop-opacity="0.18"/>
      <stop offset="100%" stop-color="#d2864f" stop-opacity="0"/>
    </radialGradient>
    <linearGradient id="guyline" x1="0" y1="0" x2="1" y2="0">
      <stop offset="0%" stop-color="#6fa178"/>
      <stop offset="100%" stop-color="#f0b985"/>
    </linearGradient>
  </defs>
  <rect width="1000" height="750" fill="url(#dusk)"/>
  <rect width="1000" height="750" fill="url(#lamp)"/>
  
  <!-- canopy ceiling lines -->
  <path d="M0,120 L500,45 L1000,120" fill="none" stroke="#5d7a64" stroke-width="2" opacity="0.4"/>
  <rect x="0" y="120" width="1000" height="30" fill="#3a5b44" opacity="0.4"/>
  <path d="M0,180 Q500,208 1000,180" fill="none" stroke="#5d7a64" stroke-width="1.5" opacity="0.5"/><circle cx="0.0" cy="180.0" r="3.5" fill="#f0b985" opacity="0.9"/><circle cx="142.9" cy="192.1" r="3.5" fill="#f0b985" opacity="0.9"/><circle cx="285.7" cy="201.9" r="3.5" fill="#f0b985" opacity="0.9"/><circle cx="428.6" cy="207.3" r="3.5" fill="#f0b985" opacity="0.9"/><circle cx="571.4" cy="207.3" r="3.5" fill="#f0b985" opacity="0.9"/><circle cx="714.3" cy="201.9" r="3.5" fill="#f0b985" opacity="0.9"/><circle cx="857.1" cy="192.1" r="3.5" fill="#f0b985" opacity="0.9"/><circle cx="1000.0" cy="180.0" r="3.5" fill="#f0b985" opacity="0.9"/>
  <line x1="0" y1="630" x2="1000" y2="630" stroke="#5d7a64" stroke-width="2" opacity="0.45"/>
  <ellipse cx="220" cy="600" rx="42" ry="14" fill="#f3f4ec" opacity="0.92"/>
        <rect x="216" y="600" width="8" height="22" fill="#5d7a64" opacity="0.5"/><ellipse cx="500" cy="600" rx="42" ry="14" fill="#f3f4ec" opacity="0.92"/>
        <rect x="496" y="600" width="8" height="22" fill="#5d7a64" opacity="0.5"/><ellipse cx="780" cy="600" rx="42" ry="14" fill="#f3f4ec" opacity="0.92"/>
        <rect x="776" y="600" width="8" height="22" fill="#5d7a64" opacity="0.5"/><ellipse cx="220" cy="435" rx="34.440000000000005" ry="11.48" fill="#f3f4ec" opacity="0.77"/>
        <rect x="216" y="435" width="8" height="18.040000000000003" fill="#5d7a64" opacity="0.5"/><ellipse cx="500" cy="435" rx="34.440000000000005" ry="11.48" fill="#f3f4ec" opacity="0.77"/>
        <rect x="496" y="435" width="8" height="18.040000000000003" fill="#5d7a64" opacity="0.5"/><ellipse cx="780" cy="435" rx="34.440000000000005" ry="11.48" fill="#f3f4ec" opacity="0.77"/>
        <rect x="776" y="435" width="8" height="18.040000000000003" fill="#5d7a64" opacity="0.5"/>
  <rect x="0" y="0" width="1000" height="5" fill="url(#guyline)"/>
  <g font-family="Georgia, 'Times New Roman', serif">
    <text x="50%" y="717" text-anchor="middle" font-size="30" font-weight="700" fill="#f6f4ea" opacity="0.9">Pardoseală și pereți</text>
  </g>
</svg>