<svg xmlns="http://www.w3.org/2000/svg" viewBox="0 0 1200 630" width="1200" height="630">
  
  <defs>
    <linearGradient id="dusk" x1="0" y1="0" x2="0" y2="1">
      <stop offset="0%" stop-color="#1c2f23"/>
      <stop offset="60%" stop-color="#26412f"/>
      <stop offset="100%" stop-color="#2c3a2c"/>
    </linearGradient>
    <radialGradient id="lamp" cx="50%" cy="62%" r="42%">
      <stop offset="0%" stop-color="#e6a877" stop-opacity="0.5"/>
      <stop offset="55%" stop-color="#c87b4a" stop-opacity="0.12"/>
      <stop offset="100%" stop-color="#c87b4a" stop-opacity="0"/>
    </radialGradient>
    <linearGradient id="guyline" x1="0" y1="0" x2="1" y2="0">
      <stop offset="0%" stop-color="#5a8c63"/>
      <stop offset="100%" stop-color="#e6a877"/>
    </linearGradient>
  </defs>
  <rect width="1200" height="630" fill="url(#dusk)"/>
  <rect width="1200" height="630" fill="url(#lamp)"/>
  
  <line x1="0" y1="516.6" x2="1200" y2="516.6" stroke="#46604f" stroke-width="2" opacity="0.4"/>
  <path d="M0,126 Q600,154 1200,126" fill="none" stroke="#46604f" stroke-width="1.5" opacity="0.5"/><circle cx="0.0" cy="126.0" r="3.5" fill="#e6a877" opacity="0.9"/><circle cx="133.3" cy="135.6" r="3.5" fill="#e6a877" opacity="0.9"/><circle cx="266.7" cy="144.0" r="3.5" fill="#e6a877" opacity="0.9"/><circle cx="400.0" cy="150.2" r="3.5" fill="#e6a877" opacity="0.9"/><circle cx="533.3" cy="153.6" r="3.5" fill="#e6a877" opacity="0.9"/><circle cx="666.7" cy="153.6" r="3.5" fill="#e6a877" opacity="0.9"/><circle cx="800.0" cy="150.2" r="3.5" fill="#e6a877" opacity="0.9"/><circle cx="933.3" cy="144.0" r="3.5" fill="#e6a877" opacity="0.9"/><circle cx="1066.7" cy="135.6" r="3.5" fill="#e6a877" opacity="0.9"/><circle cx="1200.0" cy="126.0" r="3.5" fill="#e6a877" opacity="0.9"/>
  <g>
    <path d="M381.9230769230769,419.6769230769231
    L521.4923076923077,334.8692307692308
    L600,367.5807692307693
    L678.5076923076923,334.8692307692308
    L818.0769230769231,419.6769230769231
    L818.0769230769231,516.6
    L381.9230769230769,516.6 Z" fill="#eef0e8" opacity="0.95"/>
    <path d="M381.9230769230769,419.6769230769231
    L521.4923076923077,334.8692307692308
    L600,367.5807692307693
    L678.5076923076923,334.8692307692308
    L818.0769230769231,419.6769230769231 L818.0769230769231,419.6769230769231" fill="none" stroke="#3a6b46" stroke-width="3.0288461538461537" opacity="0.35"/>
    <line x1="521.4923076923077" y1="334.8692307692308" x2="521.4923076923077" y2="516.6" stroke="#3a6b46" stroke-width="1.817307692307692" opacity="0.25"/>
    <line x1="678.5076923076923" y1="334.8692307692308" x2="678.5076923076923" y2="516.6" stroke="#3a6b46" stroke-width="1.817307692307692" opacity="0.25"/>
    <path d="M544.2692307692307,516.6
         L544.2692307692307,427.4307692307693
         Q600,405.13846153846157 655.7307692307693,427.4307692307693
         L655.7307692307693,516.6 Z" fill="#e6a877" opacity="0.9"/>
       <path d="M563.6538461538462,516.6
         L563.6538461538462,441
         Q600,424.5230769230769 636.3461538461538,441
         L636.3461538461538,516.6 Z" fill="#f3f1e8" opacity="0.85"/>
    <!-- guy ropes -->
    <line x1="381.9230769230769" y1="419.6769230769231" x2="340.7307692307692" y2="516.6" stroke="#5a8c63" stroke-width="1.817307692307692" opacity="0.6"/>
    <line x1="818.0769230769231" y1="419.6769230769231" x2="859.2692307692308" y2="516.6" stroke="#5a8c63" stroke-width="1.817307692307692" opacity="0.6"/>
  </g>
  <rect x="0" y="0" width="1200" height="5" fill="url(#guyline)"/>
  <g font-family="Georgia, 'Times New Roman', serif">
    <text x="50%" y="602.5" text-anchor="middle" font-size="25" font-weight="700" fill="#f3f1e8" opacity="0.9">Subcort · corturi pentru evenimente</text>
  </g>
</svg>